<?xml version="1.0" standalone="no"?>
<!DOCTYPE svg PUBLIC "-//W3C//DTD SVG 20010904//EN"
 "http://www.w3.org/TR/2001/REC-SVG-20010904/DTD/svg10.dtd">
<svg version="1.0" xmlns="http://www.w3.org/2000/svg"
 width="1402.000000pt" height="1122.000000pt" viewBox="0 0 1402.000000 1122.000000"
 preserveAspectRatio="xMidYMid meet">

<g transform="translate(0.000000,1122.000000) scale(0.100000,-0.100000)"
fill="#000000" stroke="none">
<path d="M5342 9877 c-71 -22 -176 -146 -213 -250 -7 -20 -16 -36 -20 -35 -4
2 -23 26 -42 53 -58 86 -127 117 -209 94 -53 -14 -111 -73 -133 -138 -9 -25
-19 -83 -22 -128 -3 -46 -7 -83 -8 -83 -2 0 -16 7 -31 15 -49 26 -91 29 -140
10 -54 -20 -89 -67 -105 -142 -27 -117 39 -297 153 -418 43 -46 58 -69 54 -83
-4 -11 -36 -30 -85 -50 -152 -63 -357 -209 -435 -312 -61 -79 -74 -71 265
-169 92 -27 173 -53 182 -57 14 -8 11 -16 -20 -54 -67 -84 -172 -253 -203
-328 -86 -204 -73 -378 35 -487 39 -39 125 -85 160 -85 11 0 30 -3 42 -6 29
-8 34 13 -89 -362 -156 -478 -186 -619 -154 -714 15 -43 15 -57 0 -170 -19
-146 -22 -435 -5 -563 34 -258 122 -509 262 -743 273 -454 729 -808 1335
-1036 l102 -39 37 -101 c59 -160 131 -291 200 -362 33 -34 68 -65 77 -70 16
-9 16 -18 -2 -151 -25 -183 -65 -444 -86 -555 -19 -101 -4 -93 -179 -103 -209
-12 -425 -55 -515 -100 -63 -32 -100 -77 -100 -122 l0 -35 -212 7 c-223 7
-1033 -9 -1259 -25 -134 -10 -169 -21 -148 -46 10 -12 158 -13 920 -7 548 4
909 3 909 -3 0 -5 -7 -18 -15 -28 -24 -32 -19 -72 13 -96 37 -30 86 -24 361
46 218 55 222 56 262 40 25 -10 70 -16 121 -16 77 0 80 -1 65 -18 -29 -32 -48
-89 -38 -115 23 -60 119 -57 301 8 53 19 305 91 390 111 114 27 447 35 1725
42 l1140 7 3 21 c2 15 -4 23 -20 28 -52 14 -818 27 -1501 24 l-728 -2 -18 27
c-43 66 -136 105 -311 132 -52 8 -110 17 -127 20 l-33 6 0 424 c0 358 2 425
14 425 25 0 115 76 162 136 51 65 125 211 149 290 l15 52 66 16 c245 62 549
231 778 432 281 248 530 674 612 1049 25 115 89 308 130 392 80 162 193 235
312 202 68 -18 165 -119 214 -220 37 -77 76 -198 98 -303 12 -57 34 -82 64
-70 36 14 99 233 117 412 21 203 -12 394 -97 570 -37 76 -60 108 -127 176 -45
45 -93 90 -107 100 -25 17 -24 17 42 12 110 -8 251 -75 397 -189 71 -55 117
-141 226 -432 55 -144 72 -168 102 -149 53 33 99 432 74 653 -45 414 -195 746
-451 1001 -117 117 -219 184 -338 222 -39 13 -72 26 -72 30 0 12 130 21 229
15 321 -18 627 -216 861 -558 48 -71 66 -89 85 -89 32 0 41 19 56 120 39 269
-56 624 -229 855 -238 319 -574 490 -962 488 -535 -1 -1006 -342 -1258 -908
-71 -158 -127 -331 -161 -496 -44 -217 -54 -314 -55 -546 -1 -117 -2 -213 -3
-213 -2 0 -49 18 -105 41 -57 22 -220 84 -363 136 -143 52 -298 110 -344 129
-219 91 -544 276 -557 318 -3 10 -49 64 -101 120 -231 245 -341 473 -473 976
-135 515 -258 810 -423 1012 l-46 56 65 38 c255 149 355 454 200 608 -48 49
-116 76 -186 76 -59 0 -154 -25 -205 -53 l-40 -23 0 101 c-1 72 -6 112 -19
145 -49 122 -143 173 -254 137z m118 -84 c14 -9 31 -24 37 -33 34 -42 44 -166
23 -294 -5 -35 -7 -71 -4 -80 11 -28 56 -17 128 29 117 76 220 94 304 54 36
-18 49 -32 70 -77 20 -45 24 -64 19 -110 -13 -123 -127 -276 -252 -340 l-60
-30 -55 40 c-143 104 -285 151 -455 151 -204 0 -346 -56 -491 -196 l-51 -48
-44 49 c-54 59 -105 152 -114 207 -4 22 -12 46 -17 52 -6 8 -7 36 -3 70 8 62
45 113 85 113 29 0 78 -26 123 -66 39 -36 61 -42 74 -21 4 6 8 73 8 147 0 123
2 139 24 182 70 136 200 79 250 -109 15 -54 42 -71 77 -48 13 8 24 23 24 33 0
28 44 145 73 195 39 66 75 105 116 127 45 24 79 25 111 3z m-82 -788 c129 -33
239 -99 340 -204 181 -188 315 -486 447 -996 151 -584 251 -788 532 -1087 39
-42 53 -64 53 -86 0 -41 -20 -54 -82 -54 -96 0 -216 52 -328 142 -17 14 -33
18 -44 14 -16 -6 -17 -14 -12 -58 25 -194 17 -272 -30 -303 -60 -39 -194 29
-316 160 -88 94 -100 90 -111 -44 -12 -149 -52 -260 -111 -303 -82 -62 -222
36 -331 230 -66 116 -83 115 -124 -11 -30 -90 -59 -147 -109 -214 -48 -63 -86
-91 -125 -91 -91 0 -149 94 -214 350 -7 28 -14 35 -33 35 -19 0 -33 -15 -69
-75 -54 -88 -168 -211 -215 -234 -19 -9 -46 -16 -60 -16 -86 0 -57 159 134
739 44 134 83 261 86 282 6 35 11 41 68 67 107 50 172 124 218 248 32 88 32
289 0 394 -29 91 -80 187 -137 257 -33 41 -52 80 -85 180 -42 123 -43 133 -44
253 l-1 126 35 58 c76 127 237 229 405 256 66 11 190 4 263 -15z m-740 -680
c17 -49 30 -90 29 -92 -2 -1 -70 18 -152 42 -83 23 -163 46 -180 51 -26 6 -19
9 49 20 78 13 99 25 89 51 -6 16 -27 16 -173 -2 -63 -7 -116 -12 -118 -10 -6
5 128 119 192 162 35 23 99 61 142 82 l79 40 6 -127 c6 -105 12 -143 37 -217z
m90 -204 c43 -49 100 -156 126 -234 41 -122 37 -305 -9 -415 -43 -100 -135
-164 -240 -166 -162 -2 -267 116 -251 283 13 140 87 291 251 505 43 57 53 65
75 60 14 -4 35 -18 48 -33z m4850 12 c-10 -2 -28 -2 -40 0 -13 2 -5 4 17 4 22
1 32 -1 23 -4z m239 1 c-3 -3 -12 -4 -19 -1 -8 3 -5 6 6 6 11 1 17 -2 13 -5z
m-327 -14 c-14 -4 -36 -8 -50 -8 -22 0 -22 1 5 8 17 4 39 8 50 8 16 0 15 -2
-5 -8z m-125 -30 c-27 -10 -57 -18 -65 -18 -8 0 8 8 35 18 28 10 57 18 65 18
8 0 -7 -8 -35 -18z m312 -175 c2 -6 -8 -12 -22 -13 -24 -2 -32 8 -18 22 10 9
36 3 40 -9z m-147 -15 c-8 -5 -17 -7 -19 -4 -3 3 1 9 9 14 8 5 17 7 19 4 3 -3
-1 -9 -9 -14z m70 8 c0 -11 -22 -10 -40 2 -11 8 -9 9 13 8 15 -1 27 -6 27 -10z
m144 -14 c4 -10 1 -14 -6 -12 -15 5 -23 28 -10 28 5 0 13 -7 16 -16z m-884
-87 c0 -2 -15 -16 -32 -33 l-33 -29 29 33 c28 30 36 37 36 29z m400 -15 c0
-15 -50 -52 -68 -51 -16 1 -16 2 1 6 9 2 17 9 17 15 0 11 29 37 43 38 4 0 7
-4 7 -8z m207 -9 c5 3 9 -3 10 -13 1 -14 -4 -18 -19 -15 -24 5 -40 24 -31 38
2 4 11 3 18 -3 8 -7 18 -9 22 -7z m-27 -49 c0 -17 -22 -14 -28 4 -2 7 3 12 12
12 9 0 16 -7 16 -16z m-137 -41 l-17 -25 -17 23 c-22 29 -5 51 28 36 21 -9 21
-11 6 -34z m-78 17 c11 -17 -5 -31 -19 -17 -14 12 -12 27 4 27 5 0 12 -4 15
-10z m575 -34 c0 -8 -4 -18 -10 -21 -5 -3 -10 3 -10 14 0 12 5 21 10 21 6 0
10 -6 10 -14z m-480 -10 c0 -2 -7 -9 -15 -16 -13 -11 -14 -10 -9 4 5 14 24 23
24 12z m20 -51 c0 -8 -7 -15 -15 -15 -16 0 -20 12 -8 23 11 12 23 8 23 -8z
m-40 -14 c0 -5 -6 -14 -14 -20 -10 -8 -16 -8 -25 2 -6 8 -8 17 -4 20 9 10 43
8 43 -2z m369 -17 c-14 -18 -24 -11 -15 11 3 9 11 13 16 10 8 -5 7 -11 -1 -21z
m-459 -3 c0 -17 -18 -21 -24 -6 -3 9 0 15 9 15 8 0 15 -4 15 -9z m51 -44 c-13
-13 -26 -3 -16 12 3 6 11 8 17 5 6 -4 6 -10 -1 -17z m279 -41 c-7 -7 -14 -6
-22 2 -10 10 -10 15 2 22 17 11 34 -10 20 -24z m40 -26 c-8 -5 -24 -10 -35
-10 -17 0 -17 2 -5 10 8 5 24 10 35 10 17 0 17 -2 5 -10z m-90 -24 c0 -2 -7
-6 -15 -10 -8 -3 -15 -1 -15 4 0 6 7 10 15 10 8 0 15 -2 15 -4z m155 -148
c137 -40 247 -110 366 -235 98 -103 162 -194 226 -324 73 -146 118 -276 149
-425 24 -113 27 -153 28 -319 1 -197 -9 -325 -25 -325 -5 0 -9 6 -9 13 0 25
-128 305 -194 427 -112 204 -212 333 -335 432 -356 286 -798 167 -1066 -287
-61 -102 -119 -241 -145 -345 -12 -47 -25 -88 -29 -93 -4 -4 -39 19 -79 50
l-72 57 0 55 c0 60 20 201 45 316 96 437 353 813 655 956 162 77 327 93 485
47z m900 -108 c4 -8 -8 -2 -24 14 -17 17 -31 31 -31 33 0 9 50 -34 55 -47z
m100 -97 l18 -28 -21 19 c-12 11 -22 23 -22 28 0 14 7 9 25 -19z m-1040 -499
c124 -43 280 -172 380 -314 57 -81 72 -120 32 -82 -29 28 -156 86 -232 106
-77 21 -220 31 -265 19 -19 -5 -62 -7 -95 -3 -196 24 -411 -59 -581 -224 -89
-86 -92 -83 -34 34 126 256 306 423 515 477 64 16 214 9 280 -13z m-3206 -8
c7 -8 47 -29 89 -47 67 -29 88 -33 167 -34 98 0 129 12 155 60 l13 24 37 -29
c140 -111 433 -248 854 -400 435 -156 547 -205 699 -307 242 -160 476 -452
557 -690 l22 -65 -27 -111 c-101 -417 -336 -794 -655 -1053 -179 -146 -411
-272 -620 -339 -159 -50 -158 -49 -184 -125 -36 -102 -72 -176 -121 -250 -78
-118 -154 -161 -280 -162 -157 -1 -269 102 -381 349 -23 53 -46 99 -51 103 -4
5 -69 20 -143 35 -936 183 -1637 653 -1964 1319 -154 315 -215 693 -171 1066
8 69 15 131 15 138 0 7 13 12 32 12 56 0 135 49 209 128 38 41 77 87 86 103
23 38 30 37 38 -10 8 -50 57 -153 95 -202 84 -105 209 -103 314 6 41 43 121
181 135 231 6 25 8 23 41 -28 46 -71 135 -160 190 -189 34 -17 62 -23 112 -24
59 0 70 3 105 31 50 41 100 139 120 239 8 44 17 82 19 84 2 2 27 -18 57 -45
84 -77 147 -107 238 -112 l77 -4 39 39 c48 48 70 129 59 217 -8 57 0 70 23 42z
m3140 -377 c169 -77 284 -227 343 -449 30 -115 32 -362 4 -490 -19 -87 -35
-132 -36 -98 0 9 -13 55 -29 102 -78 233 -235 390 -391 389 -150 -1 -290 -136
-368 -355 -15 -43 -29 -78 -32 -78 -4 0 -12 17 -19 38 -33 95 -185 322 -285
424 l-46 47 36 68 c42 79 125 184 198 250 194 175 441 235 625 152z m-3291
-2678 c59 -16 167 -42 240 -57 l132 -27 55 -114 c30 -62 55 -116 55 -121 0
-14 -73 -79 -108 -97 -53 -26 -172 -23 -228 6 -95 48 -154 132 -239 332 -33
79 -40 107 -30 107 8 0 63 -13 123 -29z m673 -501 l39 -20 0 -113 c0 -61 -3
-250 -7 -420 -6 -301 -7 -308 -27 -311 -12 -3 -81 -10 -153 -17 -131 -11 -134
-11 -188 12 -61 27 -62 29 -45 120 5 30 25 173 44 319 20 146 40 304 47 352
l12 86 46 30 c25 17 57 42 70 56 l24 26 49 -50 c27 -28 67 -59 89 -70z m-365
-68 c-4 -32 -30 -222 -58 -425 l-51 -367 21 -29 22 -30 -68 -22 c-77 -25 -133
-58 -156 -90 -12 -18 -38 -27 -118 -44 -57 -12 -176 -41 -266 -64 -90 -24
-166 -40 -169 -37 -12 12 43 59 108 91 64 33 266 105 293 105 8 0 24 8 36 18
20 16 21 19 6 31 -14 12 -38 10 -159 -13 -156 -29 -357 -56 -424 -56 -60 0
-56 23 8 56 78 39 244 72 470 93 112 11 212 22 221 26 10 4 20 16 24 27 9 31
42 210 64 353 28 181 23 170 64 170 46 0 50 16 9 35 -25 12 -33 21 -33 43 0
27 18 161 24 182 2 6 32 9 71 7 l67 -4 -6 -56z m619 -400 c0 -372 2 -421 17
-443 15 -23 30 -28 178 -52 163 -27 244 -53 276 -88 17 -19 14 -19 -157 -19
-96 0 -211 -4 -256 -10 -95 -11 -271 -54 -458 -112 -176 -54 -226 -68 -254
-68 l-25 0 30 31 c47 49 207 127 357 173 11 4 17 13 15 23 -5 23 -71 20 -183
-9 -85 -22 -327 -47 -366 -38 l-23 6 28 22 c55 43 220 79 491 107 172 18 175
19 175 104 0 31 3 92 6 137 l7 81 36 9 c48 12 47 36 -1 48 l-38 10 0 98 c0 97
0 98 24 98 65 0 76 33 16 51 l-40 12 0 124 0 123 73 0 72 0 0 -418z"/>
<path d="M5320 9550 c-8 -5 -12 -12 -9 -15 4 -3 12 1 19 10 14 17 11 19 -10 5z"/>
<path d="M5355 9526 c-18 -13 -17 -14 4 -26 19 -10 26 -9 38 3 14 13 13 16 -4
26 -15 7 -25 7 -38 -3z"/>
<path d="M5410 9446 c0 -8 -3 -21 -6 -30 -4 -11 0 -16 14 -16 11 0 22 7 26 15
3 8 1 15 -5 15 -6 0 -8 4 -5 9 3 5 -1 11 -9 15 -9 3 -15 0 -15 -8z"/>
<path d="M5078 9343 c6 -2 12 -11 12 -19 0 -8 6 -11 15 -8 12 5 12 8 0 20 -7
8 -20 14 -27 13 -10 0 -10 -2 0 -6z"/>
<path d="M5834 9335 c-16 -12 -16 -14 -3 -15 9 0 22 7 29 15 16 19 0 19 -26 0z"/>
<path d="M5704 9329 c-3 -6 -2 -15 4 -21 13 -13 32 -2 32 18 0 16 -26 19 -36
3z"/>
<path d="M5007 9312 c-21 -23 -22 -56 -2 -72 21 -17 44 -5 59 32 13 30 13 33
-11 45 -31 16 -27 16 -46 -5z"/>
<path d="M5190 9241 c0 -6 4 -13 10 -16 6 -3 7 1 4 9 -7 18 -14 21 -14 7z"/>
<path d="M5421 9214 l-21 -36 21 -34 c11 -19 22 -34 25 -34 12 0 34 65 34 100
0 33 -3 40 -19 40 -11 0 -28 -15 -40 -36z"/>
<path d="M5651 9246 c2 -2 14 -8 25 -14 17 -9 25 -8 34 3 11 13 7 15 -25 15
-21 0 -36 -2 -34 -4z"/>
<path d="M5226 9215 c-3 -9 -6 -26 -5 -38 1 -16 4 -12 10 12 10 34 6 55 -5 26z"/>
<path d="M4840 9183 c1 -17 27 -55 32 -47 8 13 -9 54 -22 54 -5 0 -10 -3 -10
-7z"/>
<path d="M5615 9099 c-4 -6 -5 -12 -2 -15 2 -3 7 2 10 11 7 17 1 20 -8 4z"/>
<path d="M4660 9061 c0 -6 5 -13 10 -16 6 -3 10 1 10 9 0 9 -4 16 -10 16 -5 0
-10 -4 -10 -9z"/>
<path d="M5083 8673 c-12 -2 -36 -20 -53 -39 -72 -83 -7 -218 98 -200 84 13
127 110 82 183 -27 44 -75 65 -127 56z"/>
<path d="M4660 8015 c0 -21 -8 -43 -19 -54 -17 -17 -18 -21 -5 -32 15 -12 19
-39 6 -39 -5 0 -15 15 -24 32 l-15 33 -18 -35 c-9 -19 -25 -42 -35 -50 -9 -8
-20 -29 -23 -47 l-6 -31 57 5 c70 7 96 20 147 72 22 22 47 41 56 41 23 0 43
26 35 46 -4 12 -14 14 -37 9 -24 -6 -36 -2 -56 17 -14 12 -29 33 -34 46 -13
33 -29 27 -29 -13z"/>
<path d="M4623 7688 c1 -15 6 -23 11 -18 4 4 4 16 -2 26 -9 16 -10 14 -9 -8z"/>
<path d="M4472 7648 c-18 -18 -14 -44 9 -60 19 -12 20 -17 9 -39 l-13 -24 27
24 c18 17 26 35 26 58 0 19 5 33 13 34 16 1 -23 17 -43 18 -9 1 -21 -4 -28
-11z"/>
<path d="M4562 7623 c4 -21 19 -26 38 -13 13 9 13 11 0 20 -23 15 -42 12 -38
-7z"/>
<path d="M4470 7484 c0 -8 5 -12 10 -9 6 3 10 10 10 16 0 5 -4 9 -10 9 -5 0
-10 -7 -10 -16z"/>
<path d="M6702 6210 c-332 -46 -577 -288 -638 -630 -45 -250 23 -508 200 -758
151 -215 367 -389 651 -527 313 -151 597 -193 741 -110 74 43 99 143 55 216
-12 19 -21 37 -21 40 0 4 26 0 58 -7 215 -50 397 -11 453 98 33 66 14 152 -50
222 l-26 29 35 -6 c127 -21 259 -14 329 16 96 42 149 114 136 184 -20 110
-141 248 -460 530 -418 369 -844 623 -1152 687 -92 19 -234 26 -311 16z m213
-80 c323 -42 715 -266 1201 -686 169 -146 371 -356 406 -420 24 -45 26 -55 17
-88 -9 -32 -18 -41 -65 -63 -47 -21 -69 -25 -153 -24 -144 0 -326 37 -326 66
-1 46 -18 105 -31 105 -8 0 -14 -7 -14 -15 0 -7 -7 -18 -15 -23 -9 -4 -17 -18
-18 -29 -1 -19 -3 -20 -37 -8 -45 16 -165 75 -282 139 -74 40 -89 45 -94 32
-3 -9 -4 -22 -1 -30 12 -30 240 -167 377 -226 162 -70 281 -204 251 -281 -25
-67 -110 -92 -264 -78 -189 16 -408 99 -625 236 -60 38 -92 43 -92 14 0 -30
150 -137 293 -208 131 -65 211 -155 205 -231 -11 -129 -311 -117 -635 25 -353
154 -630 401 -778 691 -48 95 -71 167 -90 292 -26 161 -3 307 71 458 52 105
134 196 230 258 54 34 116 60 111 46 -1 -4 6 -18 15 -32 15 -20 20 -22 30 -11
11 11 10 12 -1 6 -11 -6 -13 -3 -9 13 4 14 1 25 -9 31 -21 11 58 31 162 41 44
4 85 8 90 8 6 1 42 -3 80 -8z"/>
<path d="M6794 6091 c4 -5 0 -11 -6 -14 -7 -2 -10 -7 -7 -11 11 -11 38 5 32
20 -3 8 -9 14 -15 14 -5 0 -7 -4 -4 -9z"/>
<path d="M6800 6020 c0 -5 5 -10 11 -10 5 0 7 5 4 10 -3 6 -8 10 -11 10 -2 0
-4 -4 -4 -10z"/>
<path d="M6473 5962 c3 -13 -2 -31 -12 -44 -16 -19 -16 -23 -3 -39 8 -9 22
-15 30 -11 9 3 13 1 9 -4 -3 -6 4 -11 16 -11 13 -1 17 1 10 5 -8 5 -9 13 -3
22 15 24 12 34 -21 71 -27 29 -31 31 -26 11z"/>
<path d="M7275 5829 c-11 -16 -1 -19 13 -3 7 8 8 14 3 14 -5 0 -13 -5 -16 -11z"/>
<path d="M6450 5729 c0 -5 5 -7 10 -4 6 3 10 8 10 11 0 2 -4 4 -10 4 -5 0 -10
-5 -10 -11z"/>
<path d="M7738 5623 c-10 -3 -18 -9 -18 -14 0 -5 -10 -9 -22 -9 -19 0 -20 -2
-8 -10 8 -5 11 -10 6 -10 -5 0 -1 -9 8 -19 10 -11 15 -24 12 -30 -3 -5 8 -12
25 -16 25 -6 36 -2 56 17 25 25 23 61 -3 51 -8 -3 -14 -1 -14 4 0 18 -25 40
-42 36z"/>
<path d="M7550 5500 c-12 -8 -10 -10 8 -10 13 0 20 4 17 10 -7 12 -6 12 -25 0z"/>
<path d="M7818 5473 c6 -2 18 -2 25 0 6 3 1 5 -13 5 -14 0 -19 -2 -12 -5z"/>
<path d="M7637 5147 l-22 -22 45 -7 c67 -9 169 -12 177 -5 3 4 1 7 -6 7 -7 0
-9 5 -6 10 4 7 -9 10 -37 9 -24 -1 -56 3 -73 10 -16 6 -36 14 -43 16 -7 3 -22
-5 -35 -18z"/>
<path d="M7963 5065 c0 -8 4 -15 9 -15 4 0 8 7 8 15 0 8 -4 15 -8 15 -5 0 -9
-7 -9 -15z"/>
<path d="M8485 5040 c-3 -5 1 -10 10 -10 9 0 13 5 10 10 -3 6 -8 10 -10 10 -2
0 -7 -4 -10 -10z"/>
<path d="M8173 4918 c-5 -7 -13 -21 -16 -30 -8 -22 27 -25 48 -4 12 12 11 16
-4 30 -14 13 -20 14 -28 4z"/>
<path d="M5374 5456 c-3 -8 1 -39 10 -69 43 -148 209 -194 261 -73 25 58 -7
76 -43 26 -43 -58 -116 -29 -168 66 -32 61 -50 76 -60 50z"/>
<path d="M4860 5346 c0 -141 142 -251 214 -165 41 48 32 68 -18 38 -30 -18
-33 -18 -66 -1 -37 18 -73 72 -90 135 -15 53 -40 49 -40 -7z"/>
<path d="M5206 4893 c-29 -30 27 -146 93 -190 71 -48 170 -16 186 58 12 52
-11 60 -47 17 -17 -21 -39 -38 -50 -38 -40 0 -95 41 -128 96 -35 58 -43 67
-54 57z"/>
<path d="M5820 4563 c0 -34 43 -103 83 -135 36 -29 49 -33 98 -33 47 0 62 4
83 24 28 26 35 71 12 71 -8 0 -18 -5 -22 -11 -14 -23 -66 -37 -98 -27 -35 12
-113 82 -122 110 -7 23 -34 24 -34 1z"/>
<path d="M5564 4246 c-6 -16 7 -46 43 -94 53 -70 170 -97 220 -50 28 26 43 57
36 76 -8 19 -23 15 -49 -13 -43 -47 -134 -22 -195 55 -35 43 -46 48 -55 26z"/>
</g>
</svg>
